<svg id="Layer_1" data-name="Layer 1" xmlns="http://www.w3.org/2000/svg" viewBox="0 0 1920 1080"><defs><style>.cls-1{fill:#743b19;}.cls-1,.cls-2,.cls-3{fill-rule:evenodd;}.cls-2{fill:#b58050;}.cls-3{fill:#52a29c;}</style></defs><title>Pet Life Web Icons</title><path class="cls-1" d="M239.71015,477.2312v69.33051h57.48693a34.66526,34.66526,0,0,0,0-69.33051ZM151.78605,396.924H305.64654c63.23332,0,114.97767,51.73814,114.97767,114.96764,0,63.24384-51.74435,114.9772-114.97767,114.9772H239.71015V748.61234A10.17,10.17,0,0,1,229.567,758.75551H151.78605a10.16676,10.16676,0,0,1-10.13936-10.14317V407.06722A10.16707,10.16707,0,0,1,151.78605,396.924Z"/><path class="cls-1" d="M627.29193,563.453c-12.5939-26.093-36.66149-43.74365-64.28855-43.74365-27.62324,0-51.687,17.65068-64.28473,43.74365ZM563.68775,446.37585c84.41432,0,152.83967,71.061,152.83967,158.72372a164.87863,164.87863,0,0,1-2.19074,26.86192H493.10224c9.70733,33.9981,37.33439,58.52495,69.90114,58.52495,29.47371,0,54.89091-20.078,66.65516-49.079l.00765.00478,58.12924,56.328c-27.74559,40.01834-72.99035,66.07976-124.10768,66.07976-84.41051,0-152.83968-71.061-152.83968-158.72036C410.84807,517.43688,479.27724,446.37585,563.68775,446.37585Z"/><path class="cls-1" d="M838.257,543.17428V748.61234a10.1733,10.1733,0,0,1-10.147,10.14317h-77.7771a10.17,10.17,0,0,1-10.14318-10.14317V543.17428Zm-87.9241-226.99421H828.11a10.17392,10.17392,0,0,1,10.147,10.14461v57.06445h58.44275a9.66215,9.66215,0,0,1,9.6385,9.63707v73.93327a9.66215,9.66215,0,0,1-9.6385,9.63707H838.257v56.21712H740.18974V476.59654h-58.4504a9.66382,9.66382,0,0,1-9.63468-9.63707V393.0262a9.66382,9.66382,0,0,1,9.63468-9.63707h58.4504V326.32468A10.17064,10.17064,0,0,1,750.33292,316.18007Z"/><path class="cls-2" d="M932.93687,396.924h77.78093a10.17282,10.17282,0,0,1,10.14318,10.14318V669.55539h128.5771a9.24567,9.24567,0,0,1,9.22176,9.22033v70.7499a9.25355,9.25355,0,0,1-9.22176,9.22989H932.93687a10.17,10.17,0,0,1-10.14318-10.14317V407.06722A10.17034,10.17034,0,0,1,932.93687,396.924"/><path class="cls-2" d="M1179.84085,445.94526h77.78093A10.1724,10.1724,0,0,1,1267.765,456.088V748.608a10.1724,10.1724,0,0,1-10.14317,10.1427h-77.78093a10.16993,10.16993,0,0,1-10.14318-10.1427V456.088a10.16993,10.16993,0,0,1,10.14318-10.1427"/><path class="cls-2" d="M1178.87738,326.7462h79.70786a9.20354,9.20354,0,0,1,9.17971,9.1797v70.40342a9.204,9.204,0,0,1-9.17971,9.18019h-79.70786a9.204,9.204,0,0,1-9.17971-9.18019V335.9259a9.20354,9.20354,0,0,1,9.17971-9.1797"/><path class="cls-2" d="M1419.09443,479.75218h41.56294a14.27748,14.27748,0,0,1,14.23792,14.237v57.75313a14.27684,14.27684,0,0,1-14.23792,14.23982h-41.56676V748.61234a10.17,10.17,0,0,1-10.14318,10.14317h-77.7771a10.16756,10.16756,0,0,1-10.14318-10.14317V565.98209h-28.02851a14.27931,14.27931,0,0,1-14.23792-14.23982V493.98914a14.28,14.28,0,0,1,14.23792-14.237h28.02851V456.088a9.961,9.961,0,0,1,.195-1.97617c3.45625-60.65977,54.14537-109.20929,115.62763-109.20929h.01147a114.89444,114.89444,0,0,1,26.21627,3.01753v87.62828a17.64049,17.64049,0,0,0-5.949-1.03038h-20.27871a17.81015,17.81015,0,0,0-17.75534,17.76156Z"/><path class="cls-2" d="M1582.26462,346.12691c17.42654-3.32435,35.35393,13.86276,40.03745,38.39917,4.68735,24.53785-5.647,47.12439-23.07353,50.44921-17.42653,3.32913-35.35392-13.858-40.04127-38.39726-4.68352-24.535,5.647-47.12152,23.07735-50.45112m93.7508,0c-17.43036-3.32435-35.35775,13.86276-40.0451,38.39917-4.68352,24.53785,5.647,47.12439,23.07735,50.44921,17.42654,3.32913,35.35393-13.858,40.03363-38.39726C1703.76865,372.04305,1693.44578,349.45651,1676.01542,346.12691Zm73.04387,55.83957c10.969,6.32037,12.64361,23.96626,3.73535,39.41043-8.90061,15.44416-25.00811,22.83409-35.97712,16.51373-10.969-6.32659-12.6436-23.971-3.743-39.41521C1721.979,403.03126,1738.09029,395.64133,1749.05929,401.96648Zm-239.808,0c-10.96518,6.32037-12.63978,23.96626-3.73917,39.41043,8.90826,15.44416,25.01194,22.83409,35.98094,16.51373,10.969-6.32659,12.64361-23.971,3.743-39.41521C1536.33167,403.03126,1520.22416,395.64133,1509.25133,401.96648ZM1689.12164,563.453c-12.59773-26.093-36.66149-43.74365-64.29237-43.74365-27.62324,0-51.69083,17.65068-64.28473,43.74365Zm-63.608-117.07714c84.41433,0,152.83586,71.061,152.83586,158.72372a165.7359,165.7359,0,0,1-2.18692,26.86192H1554.92813c9.70732,33.9981,37.33056,58.52495,69.90114,58.52495,29.46606,0,54.89091-20.078,66.659-49.079l.00383.00478,58.13306,56.328c-27.74941,40.01834-72.998,66.07976-124.11151,66.07976-84.41432,0-152.84349-71.061-152.84349-158.72036C1472.67014,517.43688,1541.09931,446.37585,1625.51363,446.37585Z"/><path class="cls-3" d="M266.69108,504.21213v15.37344h30.506a7.68672,7.68672,0,0,0,0-15.37344ZM544.96894,658.94242a37.84423,37.84423,0,0,0,36.03064,0Zm1061.82589,0a37.85179,37.85179,0,0,0,36.03447,0ZM1497.2271,474.9855c.367-.38233.73025-.76418,1.09728-1.14507q-1.98428-1.61153-3.83858-3.37453A41.23357,41.23357,0,0,1,1497.2271,474.9855ZM713.20881,684.79118V658.94242H686.5261Zm0,23.65132-3.2345,4.67015C676.58555,761.277,622.639,790.80086,563.68775,790.80086c-93.30729,0-166.94378-72.18841-178.29894-161.60026a140.96236,140.96236,0,0,1-79.74227,24.64921H266.69108v94.76253a37.16793,37.16793,0,0,1-37.12411,37.1241H151.78605a37.16793,37.16793,0,0,1-37.12411-37.1241V407.06722a37.16486,37.16486,0,0,1,37.12411-37.12411H305.64654c63.29832,0,117.20665,41.89079,135.394,99.34187,31.79827-30.75833,74.61142-49.89005,122.64719-49.89005a174.224,174.224,0,0,1,81.436,20.00582V393.0262A36.66434,36.66434,0,0,1,681.747,356.40342h31.46182V326.32468a37.15944,37.15944,0,0,1,37.12028-37.12554H828.11a37.16678,37.16678,0,0,1,37.13175,37.12554v30.07874h31.458a36.59162,36.59162,0,0,1,28.9805,14.24891,37.29949,37.29949,0,0,1,7.2566-.70922h77.78093a37.16486,37.16486,0,0,1,37.1241,37.12411V642.57111h94.87867V456.088a36.97909,36.97909,0,0,1,9.76084-25.0669,36.02058,36.02058,0,0,1-9.76084-24.6946V335.9259a36.19572,36.19572,0,0,1,36.15681-36.16063h79.70786a36.199,36.199,0,0,1,36.16064,36.16063v70.40056a36.02388,36.02388,0,0,1-9.76467,24.6946,36.98362,36.98362,0,0,1,9.40528,19.8916c5.11938-74.48478,67.58423-132.99109,142.46328-132.99109a141.84846,141.84846,0,0,1,32.37176,3.72866l20.83691,4.869v55.95522a46.68848,46.68848,0,0,1,5.71581-3.884c11.79484-6.80115,24.40786-7.3646,36.06123-3.80513,3.15421-25.7374,17.805-49.89961,45.36711-55.16475,20.97455-3.99964,39.02811,4.92391,51.93552,19.44857,12.90741-14.52466,30.961-23.44821,51.93551-19.44857,27.56207,5.26992,42.2129,29.43165,45.36711,55.17861,11.66485-3.57333,24.28934-3.01418,36.09565,3.79127,27.23708,15.70893,27.93292,51.46764,13.64148,76.25926a69.57836,69.57836,0,0,1-20.45076,22.19943,189.37723,189.37723,0,0,1,49.60331,128.05045,192.95712,192.95712,0,0,1-2.54248,31.23433l-3.71623,22.60852H1748.352l36.48945,35.34819-13.04506,18.822c-33.39257,48.16432-87.33149,77.68821-146.28274,77.68821-97.45938,0-173.45865-78.75825-179.44209-173.635V748.61234a37.16547,37.16547,0,0,1-37.12411,37.1241H1331.1665a37.1789,37.1789,0,0,1-36.77236-32.01572,37.17181,37.17181,0,0,1-36.77236,32.01094h-77.78093a36.94562,36.94562,0,0,1-15.30079-3.29806,36.03011,36.03011,0,0,1-15.10963,3.30284H932.93687a37.16547,37.16547,0,0,1-37.1241-37.1241V503.57747h-30.571V748.61234A37.16955,37.16955,0,0,1,828.11,785.73644H750.32909a37.16711,37.16711,0,0,1-37.12028-37.1241ZM595.75365,368.9567a89.53339,89.53339,0,0,1,67.16748-63.22185,89.90066,89.90066,0,0,1,87.408-69.201H828.11a89.89519,89.89519,0,0,1,87.41178,69.201,88.71466,88.71466,0,0,1,28.42231,11.54632h66.77369a89.83127,89.83127,0,0,1,79.337,47.74759V335.9259A88.88972,88.88972,0,0,1,1178.87738,247.1h79.70786a88.87115,88.87115,0,0,1,77.84593,46.05052,194.85641,194.85641,0,0,1,144.78783-22.781l49.93594,11.684a103.59946,103.59946,0,0,1,36.17211-14.15667,102.49493,102.49493,0,0,1,61.81106,7.04536,102.49493,102.49493,0,0,1,61.81106-7.04536c34.02342,6.49432,58.97036,27.651,73.62119,55.116a96.94793,96.94793,0,0,1,24.27022,9.95679c52.16874,30.08018,61.6696,96.257,34.03872,146.2598A242.27228,242.27228,0,0,1,1858,605.09957a246.05958,246.05958,0,0,1-3.24215,39.76121l-6.21284,37.83,5.03909,4.88282-7.65039,11.03591-2.13722,12.99822h-6.87426L1815.076,743.11588c-43.21842,62.343-113.32219,100.35027-189.56234,100.35027a226.92759,226.92759,0,0,1-139.982-47.99515,89.79221,89.79221,0,0,1-76.58424,42.92595H1331.1665a89.33392,89.33392,0,0,1-36.77618-7.86594,89.37481,89.37481,0,0,1-36.76854,7.86594h-77.78093a90.10536,90.10536,0,0,1-15.2358-1.2918,89.12394,89.12394,0,0,1-15.17462,1.2918H932.93687a89.34136,89.34136,0,0,1-52.41342-16.90371A89.31515,89.31515,0,0,1,828.11,838.39695H750.32909a89.5766,89.5766,0,0,1-66.32254-29.2988,227.75251,227.75251,0,0,1-120.3188,34.368c-96.32769,0-176.9952-59.31446-212.73145-142.2898a192.90255,192.90255,0,0,1-31.60328,4.8594v42.57659A89.84691,89.84691,0,0,1,229.567,838.39695H151.78605A89.84691,89.84691,0,0,1,62,748.61234V407.06722a89.84721,89.84721,0,0,1,89.786-89.78605H305.64654A194.45987,194.45987,0,0,1,458.9106,392.17409,226.58454,226.58454,0,0,1,563.68775,366.733,231.16874,231.16874,0,0,1,595.75365,368.9567Z"/></svg>