<svg id="Layer_1" data-name="Layer 1" xmlns="http://www.w3.org/2000/svg" viewBox="0 0 1440 595.276" fill="#e5d5c2"><title>Website graphics</title><ellipse cx="99.87648" cy="498.52652" rx="56.11896" ry="44.89517" transform="translate(-323.25834 216.63838) rotate(-45)"/><ellipse cx="153.63134" cy="395.21752" rx="36.0948" ry="22.21218" transform="translate(-234.46341 224.39029) rotate(-45)"/><ellipse cx="82.9526" cy="403.07071" rx="36.0948" ry="22.21218" transform="translate(-319.83593 318.75859) rotate(-66.54829)"/><ellipse cx="196.8239" cy="516.94201" rx="36.0948" ry="22.21218" transform="translate(-189.47206 121.03278) rotate(-23.45171)"/><ellipse cx="200.7505" cy="442.33668" rx="36.0948" ry="22.21218" transform="translate(-253.98081 271.50945) rotate(-45)"/><ellipse cx="228.95059" cy="307.1462" rx="41.79404" ry="33.43523" transform="translate(-108.55173 488.39009) rotate(-81.53517)"/><ellipse cx="215.31444" cy="221.49435" rx="26.88124" ry="16.5423" transform="translate(-35.46181 401.85879) rotate(-81.53517)"/><ellipse cx="176.50259" cy="257.52947" rx="16.5423" ry="26.88124" transform="translate(-53.71521 46.64003) rotate(-13.08346)"/><ellipse cx="295.1278" cy="275.18369" rx="26.88124" ry="16.5423" transform="translate(-90.77916 393.09169) rotate(-59.98689)"/><ellipse cx="264.40074" cy="228.79955" rx="26.88124" ry="16.5423" transform="translate(-0.82674 456.64021) rotate(-81.53517)"/><ellipse cx="313.62383" cy="413.00026" rx="31.91449" ry="25.53159" transform="translate(-42.68628 36.20824) rotate(-6.18736)"/><ellipse cx="374.26779" cy="386.38193" rx="20.52688" ry="12.63192" transform="translate(-39.46409 42.58939) rotate(-6.18736)"/><ellipse cx="340.149" cy="364.66892" rx="20.52688" ry="12.63192" transform="translate(-130.63263 200.20185) rotate(-27.73565)"/><ellipse cx="350.01966" cy="455.71689" rx="12.63192" ry="20.52688" transform="translate(-182.13702 672.51382) rotate(-74.63908)"/><ellipse cx="378.3522" cy="424.05695" rx="20.52688" ry="12.63192" transform="translate(-43.50091 43.24908) rotate(-6.18736)"/><ellipse cx="377.35426" cy="275.14305" rx="25.65718" ry="20.52574" transform="translate(-75.88425 387.7254) rotate(-50.04686)"/><ellipse cx="397.68027" cy="225.93205" rx="16.50228" ry="10.15525" transform="translate(-30.88714 385.69709) rotate(-50.04686)"/><ellipse cx="365.8076" cy="232.35122" rx="16.50228" ry="10.15525" transform="translate(29.84512 506.08741) rotate(-71.59515)"/><ellipse cx="422.24673" cy="279.63066" rx="16.50228" ry="10.15525" transform="translate(-82.25804 235.35265) rotate(-28.49858)"/><ellipse cx="421.03439" cy="245.49596" rx="16.50228" ry="10.15525" transform="translate(-37.52722 410.60039) rotate(-50.04686)"/><ellipse cx="1111.0723" cy="298.69719" rx="31.15782" ry="24.92626" transform="translate(114.21474 873.13314) rotate(-45)"/><ellipse cx="1140.91755" cy="241.33896" rx="20.0402" ry="12.33243" transform="translate(163.5146 877.43708) rotate(-45)"/><ellipse cx="1101.67599" cy="245.69914" rx="20.0402" ry="12.33243" transform="translate(437.83197 1158.58969) rotate(-66.54829)"/><ellipse cx="1164.8985" cy="308.92165" rx="20.0402" ry="12.33243" transform="translate(-26.71792 489.11993) rotate(-23.45171)"/><ellipse cx="1167.07859" cy="267.50001" rx="20.0402" ry="12.33243" transform="translate(152.67834 903.59812) rotate(-45)"/><ellipse cx="1174.29692" cy="151.17125" rx="35.41168" ry="28.32935" transform="translate(851.91333 1290.42313) rotate(-81.53517)"/><ellipse cx="1162.74315" cy="78.59927" rx="22.77622" ry="14.01613" transform="matrix(0.1472, -0.98911, 0.98911, 0.1472, 913.84171, 1217.10599)"/><ellipse cx="1129.85824" cy="109.13148" rx="14.01613" ry="22.77622" transform="translate(4.62548 258.59907) rotate(-13.08346)"/><ellipse cx="1230.36823" cy="124.08972" rx="22.77622" ry="14.01613" transform="translate(507.4896 1127.40958) rotate(-59.98689)"/><ellipse cx="1204.33349" cy="84.78889" rx="22.77622" ry="14.01613" transform="translate(943.18767 1263.52176) rotate(-81.53517)"/><ellipse cx="1262.18986" cy="261.84239" rx="26.58551" ry="21.26841" transform="translate(-20.86884 137.56426) rotate(-6.18736)"/><ellipse cx="1312.7077" cy="239.6687" rx="17.09937" ry="10.52269" transform="translate(-18.18468 142.87991) rotate(-6.18736)"/><ellipse cx="1284.28595" cy="221.58126" rx="17.09937" ry="10.52269" transform="translate(44.43671 623.1563) rotate(-27.73565)"/><ellipse cx="1292.50844" cy="297.42635" rx="10.52269" ry="17.09937" transform="translate(663.32369 1464.9738) rotate(-74.63908)"/><ellipse cx="1316.11011" cy="271.05287" rx="17.09937" ry="10.52269" transform="translate(-21.54745 143.42945) rotate(-6.18736)"/><ellipse cx="1309.64752" cy="137.13446" rx="41.87273" ry="33.49819" transform="translate(363.52005 1053.00852) rotate(-50.04686)"/><ellipse cx="1342.81974" cy="56.82169" rx="26.93186" ry="16.57345" transform="translate(436.95573 1049.6983) rotate(-50.04686)"/><ellipse cx="1290.80327" cy="67.29783" rx="26.93186" ry="16.57345" transform="translate(819.40334 1270.82771) rotate(-71.59515)"/><ellipse cx="1382.91242" cy="144.45828" rx="26.93186" ry="16.57345" transform="translate(98.64256 677.34276) rotate(-28.49858)"/><ellipse cx="1380.93387" cy="88.75016" rx="26.93186" ry="16.57345" transform="translate(426.11905 1090.3407) rotate(-50.04686)"/></svg>